<svg width="1348" height="600" viewBox="0 0 1348 600" fill="none" xmlns="http://www.w3.org/2000/svg">
<g clip-path="url(#clip0_474_28357)">
<rect width="1348" height="600" fill="white"/>
<path d="M0 0H674V600H529.839L255.811 257.5L80.9292 270.5L0 0Z" fill="#DEDEFF" fill-opacity="0.1"/>
<path d="M0 0H674V600H567.283L330.7 257.5L145.818 300.5L0 0Z" fill="#DEDEFF" fill-opacity="0.2"/>
<path d="M0 0H674V600H604.728L405.589 257.5L220.707 320.5L0 0Z" fill="#DEDEFF" fill-opacity="0.3"/>
<path d="M0 0H674V600H642.172L480.478 257.5L295.596 340.5L0 0Z" fill="#DEDEFF" fill-opacity="0.4"/>
<path d="M1348 0H674V600H818.161L1092.19 257.5L1267.07 270.5L1348 0Z" fill="#DEDEFF" fill-opacity="0.1"/>
<path d="M1348 0H674V600H780.717L1017.3 257.5L1202.18 300.5L1348 0Z" fill="#DEDEFF" fill-opacity="0.2"/>
<path d="M1348 0H674V600H743.272L942.411 257.5L1127.29 320.5L1348 0Z" fill="#DEDEFF" fill-opacity="0.3"/>
<path d="M1348 0H674V600H705.828L867.522 257.5L1052.4 340.5L1348 0Z" fill="#DEDEFF" fill-opacity="0.4"/>
<rect y="400" width="1348" height="200" fill="url(#paint0_linear_474_28357)"/>
<rect width="1348" height="200" transform="matrix(1 0 0 -1 0 200)" fill="url(#paint1_linear_474_28357)"/>
</g>
<defs>
<linearGradient id="paint0_linear_474_28357" x1="674" y1="400" x2="674" y2="600" gradientUnits="userSpaceOnUse">
<stop stop-color="white" stop-opacity="0"/>
<stop offset="1" stop-color="white"/>
</linearGradient>
<linearGradient id="paint1_linear_474_28357" x1="674" y1="0" x2="674" y2="200" gradientUnits="userSpaceOnUse">
<stop stop-color="white" stop-opacity="0"/>
<stop offset="1" stop-color="white"/>
</linearGradient>
<clipPath id="clip0_474_28357">
<rect width="1348" height="600" fill="white"/>
</clipPath>
</defs>
</svg>
